<svg id="svg" version="1.1" xmlns="http://www.w3.org/2000/svg" xmlns:xlink="http://www.w3.org/1999/xlink" width="400" height="400" viewBox="0, 0, 400,400"><g id="svgg"><path id="path0" d="M66.000 20.190 C 43.381 24.019,26.079 40.542,20.541 63.600 C 19.470 68.058,19.167 326.955,20.225 333.400 C 23.995 356.372,42.160 374.660,65.600 379.083 C 71.418 380.181,327.692 380.199,333.489 379.102 C 357.061 374.641,374.651 357.088,379.083 333.600 C 380.197 327.697,380.197 71.503,379.083 65.600 C 374.624 41.970,356.370 23.978,333.012 20.189 C 327.991 19.375,70.810 19.376,66.000 20.190 M322.335 53.983 C 330.872 54.809,337.032 60.157,338.984 68.437 C 339.728 71.595,339.930 320.549,339.192 324.444 C 337.809 331.736,331.692 337.857,324.445 339.200 C 320.506 339.931,71.561 339.720,68.437 338.984 C 60.076 337.013,54.827 330.905,53.963 322.143 C 53.216 314.558,53.694 70.189,54.461 67.740 C 57.019 59.577,63.425 54.564,72.200 53.862 C 76.210 53.542,318.982 53.659,322.335 53.983 M395.397 199.600 C 395.397 268.570,395.444 296.785,395.500 262.300 C 395.556 227.815,395.556 171.385,395.500 136.900 C 395.444 102.415,395.397 130.630,395.397 199.600 M24.000 374.600 C 24.746 375.370,25.447 376.000,25.557 376.000 C 25.667 376.000,25.146 375.370,24.400 374.600 C 23.654 373.830,22.953 373.200,22.843 373.200 C 22.733 373.200,23.254 373.830,24.000 374.600 M137.932 395.500 C 172.105 395.556,227.905 395.556,261.932 395.500 C 295.960 395.444,268.000 395.397,199.800 395.397 C 131.600 395.397,103.760 395.444,137.932 395.500 " stroke="none" fill="#3c545c" fill-rule="evenodd"></path><path id="path1" d="M65.200 4.273 C 64.650 4.365,63.930 4.539,63.600 4.660 C 63.270 4.782,62.202 4.950,61.228 5.034 C 60.253 5.118,59.353 5.325,59.228 5.493 C 59.102 5.662,58.370 5.851,57.600 5.914 C 56.830 5.976,56.140 6.202,56.066 6.416 C 55.992 6.630,55.782 6.712,55.598 6.599 C 55.101 6.291,48.800 8.370,48.800 8.841 C 48.800 9.064,48.633 9.144,48.430 9.019 C 47.969 8.733,46.000 9.600,46.000 10.088 C 46.000 10.285,45.831 10.343,45.625 10.215 C 45.060 9.866,40.005 12.479,40.287 12.975 C 40.420 13.209,40.383 13.268,40.205 13.107 C 39.781 12.724,35.957 14.808,36.241 15.267 C 36.361 15.461,36.311 15.594,36.130 15.563 C 35.278 15.415,34.779 15.643,35.038 16.062 C 35.200 16.323,35.149 16.416,34.922 16.275 C 34.412 15.960,31.908 17.775,32.305 18.172 C 32.467 18.334,32.420 18.413,32.200 18.348 C 31.562 18.160,29.953 19.201,30.219 19.630 C 30.351 19.844,30.311 19.975,30.130 19.921 C 29.541 19.744,27.599 21.275,27.865 21.706 C 28.007 21.935,27.939 22.009,27.713 21.870 C 26.790 21.300,15.681 33.960,16.269 34.912 C 16.416 35.149,16.328 35.203,16.062 35.038 C 15.643 34.779,15.415 35.278,15.563 36.130 C 15.594 36.311,15.461 36.361,15.267 36.241 C 14.808 35.957,12.724 39.781,13.107 40.205 C 13.268 40.383,13.209 40.420,12.975 40.287 C 12.479 40.005,9.866 45.060,10.215 45.625 C 10.343 45.831,10.285 46.000,10.088 46.000 C 9.600 46.000,8.733 47.969,9.019 48.430 C 9.144 48.633,9.063 48.800,8.839 48.800 C 8.384 48.800,6.318 55.144,6.616 55.626 C 6.720 55.794,6.619 55.994,6.392 56.069 C 6.165 56.145,5.921 56.853,5.850 57.644 C 5.779 58.434,5.606 59.266,5.466 59.494 C 5.094 60.095,4.404 65.283,4.644 65.671 C 4.756 65.852,4.657 66.000,4.425 66.000 C 3.855 66.000,3.847 331.899,4.418 334.200 C 4.636 335.080,4.888 336.561,4.978 337.490 C 5.068 338.420,5.272 339.392,5.431 339.650 C 5.591 339.909,5.779 340.766,5.850 341.556 C 5.921 342.347,6.165 343.055,6.392 343.131 C 6.619 343.206,6.714 343.416,6.602 343.597 C 5.999 344.572,12.463 360.255,13.264 359.760 C 13.460 359.640,13.580 359.689,13.531 359.870 C 13.342 360.567,14.077 362.000,14.491 361.744 C 14.729 361.597,14.816 361.650,14.685 361.863 C 14.360 362.388,15.774 364.485,16.194 364.103 C 16.378 363.936,16.415 363.998,16.277 364.240 C 15.959 364.799,17.766 367.290,18.203 366.895 C 18.382 366.733,18.405 366.814,18.255 367.076 C 17.793 367.883,27.364 378.193,28.133 377.718 C 28.348 377.585,28.404 377.670,28.257 377.908 C 27.944 378.415,30.155 380.111,30.578 379.688 C 30.737 379.530,30.807 379.613,30.733 379.872 C 30.559 380.491,33.189 382.447,33.760 382.123 C 34.002 381.985,34.066 382.020,33.902 382.201 C 33.607 382.526,37.046 385.077,38.067 385.290 C 38.359 385.350,38.778 385.615,38.999 385.878 C 39.548 386.532,46.830 390.104,47.088 389.846 C 47.202 389.731,47.567 389.910,47.899 390.242 C 48.231 390.574,48.750 390.751,49.052 390.636 C 49.353 390.520,49.600 390.594,49.600 390.801 C 49.600 391.216,54.654 392.853,56.214 392.943 C 56.756 392.974,57.200 393.146,57.200 393.325 C 57.200 393.504,57.515 393.598,57.900 393.535 C 58.285 393.472,58.829 393.564,59.110 393.739 C 59.570 394.029,61.509 394.330,64.502 394.579 C 65.109 394.630,65.723 394.790,65.868 394.935 C 66.212 395.279,332.990 395.277,333.333 394.933 C 333.478 394.789,334.091 394.630,334.698 394.580 C 338.223 394.290,340.214 393.958,340.319 393.643 C 340.385 393.446,340.790 393.377,341.219 393.489 C 341.667 393.606,342.000 393.493,342.000 393.223 C 342.000 392.964,342.180 392.864,342.401 393.000 C 342.927 393.326,349.600 391.286,349.600 390.800 C 349.600 390.594,349.847 390.520,350.148 390.636 C 350.450 390.751,350.969 390.574,351.301 390.242 C 351.633 389.910,352.006 389.740,352.131 389.864 C 352.516 390.249,360.805 385.932,360.531 385.489 C 360.387 385.256,360.471 385.197,360.724 385.353 C 360.970 385.505,361.522 385.278,361.952 384.848 C 362.382 384.418,362.818 384.151,362.922 384.255 C 363.182 384.515,369.577 379.651,372.992 376.594 C 377.603 372.468,385.952 361.693,385.325 360.679 C 385.188 360.457,385.263 360.392,385.492 360.533 C 385.901 360.786,387.090 358.513,386.885 357.870 C 386.827 357.689,386.938 357.638,387.132 357.758 C 387.565 358.026,388.498 356.082,388.181 355.570 C 388.056 355.367,388.120 355.200,388.324 355.200 C 388.817 355.200,390.870 350.437,390.579 349.967 C 390.455 349.765,390.522 349.600,390.730 349.600 C 390.937 349.600,391.202 349.285,391.319 348.900 C 393.066 343.135,393.608 341.075,393.426 340.893 C 393.305 340.772,393.397 340.444,393.630 340.164 C 393.863 339.884,394.140 338.787,394.245 337.727 C 394.616 334.022,394.685 333.582,394.940 333.327 C 395.274 332.993,395.276 66.210,394.942 65.875 C 394.802 65.736,394.622 64.761,394.542 63.711 C 394.338 61.033,392.751 54.400,392.315 54.400 C 392.116 54.400,392.047 54.248,392.161 54.062 C 392.459 53.580,391.635 50.800,391.194 50.800 C 390.991 50.800,390.929 50.530,391.055 50.200 C 391.182 49.870,391.092 49.600,390.855 49.600 C 390.619 49.600,390.520 49.353,390.636 49.052 C 390.751 48.750,390.574 48.231,390.242 47.899 C 389.910 47.567,389.732 47.201,389.847 47.086 C 390.112 46.821,388.442 43.498,387.846 43.106 C 387.601 42.944,387.538 42.809,387.707 42.806 C 388.162 42.797,386.053 38.800,385.593 38.800 C 385.377 38.800,385.221 38.665,385.247 38.500 C 385.380 37.661,385.151 37.183,384.738 37.438 C 384.483 37.596,384.384 37.550,384.516 37.335 C 384.841 36.810,382.626 33.516,382.205 33.898 C 382.022 34.064,381.991 33.991,382.138 33.735 C 382.479 33.138,378.034 27.532,377.487 27.870 C 377.261 28.009,377.185 27.948,377.318 27.732 C 377.639 27.213,371.456 21.086,371.015 21.488 C 370.826 21.660,370.793 21.589,370.941 21.331 C 371.251 20.789,369.062 19.072,368.622 19.512 C 368.463 19.670,368.393 19.587,368.467 19.328 C 368.641 18.709,366.011 16.753,365.440 17.077 C 365.198 17.215,365.136 17.178,365.302 16.995 C 365.684 16.574,362.390 14.359,361.865 14.684 C 361.651 14.816,361.589 14.741,361.728 14.517 C 361.996 14.084,353.301 9.366,352.925 9.742 C 352.804 9.863,352.433 9.690,352.101 9.358 C 351.769 9.026,351.250 8.849,350.948 8.964 C 350.647 9.080,350.400 9.015,350.400 8.820 C 350.400 8.356,344.132 6.271,343.644 6.573 C 343.437 6.701,343.208 6.630,343.134 6.416 C 343.060 6.202,342.370 5.976,341.600 5.914 C 340.830 5.851,340.098 5.662,339.972 5.493 C 339.847 5.325,338.921 5.122,337.914 5.043 C 336.907 4.963,335.839 4.741,335.541 4.549 C 335.015 4.210,67.229 3.937,65.200 4.273 M333.012 20.189 C 356.370 23.978,374.624 41.970,379.083 65.600 C 380.197 71.503,380.197 327.697,379.083 333.600 C 374.651 357.088,357.061 374.641,333.489 379.102 C 327.692 380.199,71.418 380.181,65.600 379.083 C 42.160 374.660,23.995 356.372,20.225 333.400 C 19.167 326.955,19.470 68.058,20.541 63.600 C 26.079 40.542,43.381 24.019,66.000 20.190 C 70.810 19.376,327.991 19.375,333.012 20.189 M72.200 53.862 C 63.425 54.564,57.019 59.577,54.461 67.740 C 53.694 70.189,53.216 314.558,53.963 322.143 C 54.827 330.905,60.076 337.013,68.437 338.984 C 71.561 339.720,320.506 339.931,324.445 339.200 C 331.692 337.857,337.809 331.736,339.192 324.444 C 339.930 320.549,339.728 71.595,338.984 68.437 C 337.032 60.157,330.872 54.809,322.335 53.983 C 318.982 53.659,76.210 53.542,72.200 53.862 M298.320 103.773 C 301.261 105.331,311.600 116.708,311.600 118.385 C 311.600 119.323,212.176 219.494,207.540 223.228 C 204.150 225.958,206.386 227.745,180.566 201.673 C 167.911 188.895,157.194 178.325,156.750 178.184 C 155.420 177.762,154.480 179.068,153.171 183.155 C 143.888 212.134,159.905 241.695,188.517 248.391 C 222.896 256.437,255.274 226.754,249.493 192.493 C 248.631 187.385,248.242 187.600,258.361 187.600 C 269.149 187.600,268.800 187.190,268.800 199.859 C 268.800 232.725,246.390 260.369,214.151 267.269 C 207.711 268.647,192.689 268.647,186.249 267.269 C 158.121 261.249,136.022 237.953,132.214 210.311 C 131.747 206.920,131.370 206.800,121.172 206.800 C 109.128 206.800,109.451 206.572,110.801 214.113 C 118.311 256.057,151.170 285.966,193.512 289.398 C 198.164 289.775,201.250 289.819,204.312 289.550 C 211.381 288.929,211.340 288.867,211.135 299.740 C 210.957 309.142,211.872 308.401,200.456 308.397 C 144.143 308.376,96.956 266.425,91.403 211.444 C 90.949 206.954,90.665 206.800,82.841 206.800 C 74.576 206.800,75.200 207.606,75.200 196.940 C 75.200 186.729,74.452 187.600,83.229 187.600 C 91.327 187.600,91.263 187.632,91.989 183.143 C 95.510 161.348,104.593 142.422,119.558 125.700 C 124.731 119.919,123.970 119.724,133.900 129.375 C 138.089 133.446,138.089 133.461,133.884 138.123 C 123.064 150.121,116.090 162.900,112.377 177.535 C 109.697 188.098,109.227 187.600,121.889 187.600 C 132.449 187.600,132.358 187.626,133.192 184.321 C 136.375 171.718,142.244 160.944,150.743 152.100 C 154.861 147.815,154.032 147.197,181.567 175.100 C 192.878 186.563,202.425 196.018,202.782 196.111 C 204.136 196.465,205.766 194.907,235.174 165.141 C 281.853 117.894,296.491 103.200,296.881 103.200 C 297.078 103.200,297.726 103.458,298.320 103.773 M307.561 188.361 C 309.058 189.858,309.330 204.045,307.889 205.483 C 307.113 206.258,292.189 206.343,290.764 205.581 C 290.175 205.266,289.649 198.420,289.538 189.622 C 289.514 187.779,290.339 187.600,298.876 187.600 C 306.131 187.600,306.864 187.664,307.561 188.361 " stroke="none" fill="#e3964a" fill-rule="evenodd"></path><path id="path2" d="M280.935 118.900 C 272.362 127.535,251.769 148.344,235.174 165.141 C 205.766 194.907,204.136 196.465,202.782 196.111 C 202.425 196.018,192.878 186.563,181.567 175.100 C 154.032 147.197,154.861 147.815,150.743 152.100 C 142.244 160.944,136.375 171.718,133.192 184.321 C 132.358 187.626,132.449 187.600,121.889 187.600 C 109.227 187.600,109.697 188.098,112.377 177.535 C 116.090 162.900,123.064 150.121,133.884 138.123 C 138.089 133.461,138.089 133.446,133.900 129.375 C 123.970 119.724,124.731 119.919,119.558 125.700 C 104.593 142.422,95.510 161.348,91.989 183.143 C 91.263 187.632,91.327 187.600,83.229 187.600 C 74.452 187.600,75.200 186.729,75.200 196.940 C 75.200 207.606,74.576 206.800,82.841 206.800 C 90.665 206.800,90.949 206.954,91.403 211.444 C 96.956 266.425,144.143 308.376,200.456 308.397 C 211.872 308.401,210.957 309.142,211.135 299.740 C 211.340 288.867,211.381 288.929,204.312 289.550 C 201.250 289.819,198.164 289.775,193.512 289.398 C 151.170 285.966,118.311 256.057,110.801 214.113 C 109.451 206.572,109.128 206.800,121.172 206.800 C 131.370 206.800,131.747 206.920,132.214 210.311 C 136.022 237.953,158.121 261.249,186.249 267.269 C 192.689 268.647,207.711 268.647,214.151 267.269 C 246.390 260.369,268.800 232.725,268.800 199.859 C 268.800 187.190,269.149 187.600,258.361 187.600 C 248.242 187.600,248.631 187.385,249.493 192.493 C 253.651 217.134,237.105 241.985,212.400 248.205 C 173.707 257.947,140.793 221.797,153.171 183.155 C 154.480 179.068,155.420 177.762,156.750 178.184 C 157.194 178.325,167.911 188.895,180.566 201.673 C 206.386 227.745,204.150 225.958,207.540 223.228 C 212.176 219.494,311.600 119.323,311.600 118.385 C 311.600 116.103,299.093 103.200,296.881 103.200 C 296.683 103.200,289.508 110.265,280.935 118.900 M290.239 188.122 C 289.846 188.409,289.531 189.084,289.538 189.622 C 289.649 198.420,290.175 205.266,290.764 205.581 C 292.189 206.343,307.113 206.258,307.889 205.483 C 309.330 204.045,309.058 189.858,307.561 188.361 C 306.592 187.392,291.521 187.184,290.239 188.122 " stroke="none" fill="#fbfbfa" fill-rule="evenodd"></path></g></svg>