<svg id="svg" version="1.1" xmlns="http://www.w3.org/2000/svg" xmlns:xlink="http://www.w3.org/1999/xlink" width="400" height="400" viewBox="0, 0, 400,400"><g id="svgg"><path id="path0" d="M66.000 1.883 C 44.417 4.350,24.010 17.087,12.875 35.040 C 8.786 41.633,4.062 52.664,4.542 54.499 C 4.652 54.922,4.558 55.098,4.305 54.941 C 4.035 54.774,3.956 55.056,4.084 55.728 C 4.194 56.304,4.146 56.690,3.976 56.585 C 3.611 56.360,3.008 59.023,2.191 64.457 C 1.044 72.095,1.361 335.242,2.516 334.528 C 2.758 334.379,2.800 334.476,2.619 334.768 C 2.208 335.434,2.764 339.670,3.225 339.385 C 3.426 339.260,3.484 339.436,3.354 339.775 C 3.051 340.565,3.975 344.463,4.402 344.199 C 4.580 344.089,4.643 344.315,4.542 344.701 C 4.278 345.710,6.939 353.143,9.180 357.658 C 19.369 378.185,38.338 392.350,61.400 396.654 C 65.254 397.373,70.317 397.400,200.000 397.400 L 334.600 397.400 339.623 396.313 C 359.942 391.917,376.364 380.463,386.970 363.290 C 390.845 357.014,395.577 345.484,395.071 343.549 C 394.963 343.136,395.025 342.892,395.208 343.005 C 395.660 343.284,396.551 339.081,396.578 336.540 C 396.590 335.407,396.711 334.548,396.847 334.631 C 397.525 335.045,397.600 321.658,397.600 199.600 C 397.600 76.403,397.529 64.149,396.819 64.588 C 396.668 64.681,396.617 64.264,396.706 63.662 C 397.160 60.567,391.932 43.100,390.767 43.820 C 390.570 43.942,390.515 43.765,390.645 43.427 C 390.775 43.089,390.213 41.595,389.396 40.107 C 378.531 20.292,361.941 7.938,339.429 2.896 L 334.600 1.814 201.000 1.769 C 127.520 1.744,66.770 1.795,66.000 1.883 M329.610 25.616 C 347.382 27.795,363.749 40.337,370.413 56.883 C 370.919 58.138,371.466 59.083,371.629 58.982 C 371.792 58.881,371.824 59.187,371.700 59.662 C 371.541 60.268,371.617 60.437,371.953 60.229 C 372.301 60.014,372.364 60.243,372.184 61.066 C 371.984 61.978,372.026 62.082,372.400 61.600 C 372.774 61.118,372.816 61.222,372.616 62.134 C 372.464 62.828,372.519 63.174,372.758 63.026 C 372.979 62.890,373.271 63.597,373.429 64.651 C 373.583 65.678,373.953 66.986,374.252 67.559 C 374.551 68.131,374.796 68.879,374.798 69.220 C 374.799 69.561,374.962 70.011,375.159 70.220 C 375.356 70.429,375.614 71.320,375.732 72.200 C 375.849 73.080,376.221 75.870,376.559 78.400 C 377.343 84.278,377.338 93.314,376.547 99.200 C 376.207 101.730,375.834 104.610,375.719 105.600 C 375.603 106.590,375.351 107.499,375.159 107.621 C 373.480 108.682,373.452 174.068,375.130 175.171 C 376.499 176.070,376.495 216.732,375.127 217.631 C 374.151 218.273,373.991 227.484,374.093 277.262 C 374.153 306.715,374.049 329.430,373.853 329.309 C 373.662 329.191,373.577 329.837,373.663 330.744 C 373.750 331.651,373.660 332.447,373.464 332.512 C 373.269 332.577,373.084 333.460,373.054 334.474 C 373.024 335.488,372.880 336.244,372.733 336.155 C 372.331 335.912,371.896 338.303,372.234 338.890 C 372.396 339.171,372.379 339.265,372.197 339.099 C 372.014 338.934,371.212 340.374,370.415 342.299 C 363.605 358.743,348.383 370.832,331.234 373.417 C 325.499 374.282,73.731 374.286,67.998 373.422 C 53.290 371.205,39.387 361.567,31.790 348.321 C 30.946 346.848,30.152 345.706,30.027 345.783 C 29.902 345.860,29.775 345.536,29.745 345.062 C 29.661 343.736,26.970 337.163,26.645 337.488 C 26.487 337.646,26.457 337.511,26.578 337.188 C 26.817 336.552,25.882 331.451,25.582 331.751 C 25.482 331.852,25.465 331.116,25.544 330.116 C 25.624 329.116,25.534 328.394,25.344 328.511 C 25.152 328.629,25.053 305.869,25.121 277.062 C 25.233 229.386,25.068 216.169,24.409 220.000 C 24.223 221.085,24.107 220.634,23.896 218.000 C 23.746 216.130,23.414 212.620,23.158 210.200 C 22.559 204.536,22.557 186.689,23.155 181.000 C 23.409 178.580,23.742 175.160,23.894 173.400 C 24.114 170.845,24.218 170.482,24.410 171.600 C 25.061 175.401,25.233 162.547,25.121 118.338 C 25.054 91.655,25.152 70.571,25.344 70.689 C 25.534 70.806,25.624 70.084,25.544 69.084 C 25.465 68.084,25.482 67.348,25.582 67.449 C 25.882 67.749,26.817 62.648,26.578 62.012 C 26.457 61.689,26.487 61.554,26.645 61.712 C 26.970 62.037,29.661 55.464,29.745 54.138 C 29.775 53.664,29.929 53.356,30.086 53.453 C 30.243 53.550,30.812 52.768,31.350 51.715 C 38.074 38.556,53.135 28.015,68.400 25.785 C 72.878 25.130,324.325 24.968,329.610 25.616 M360.000 359.325 C 360.000 359.394,359.415 359.979,358.700 360.625 L 357.400 361.800 358.575 360.500 C 359.670 359.288,360.000 359.016,360.000 359.325 " stroke="none" fill="#e48424" fill-rule="evenodd"></path><path id="path1" d="M336.400 45.050 C 334.226 45.246,329.548 46.395,329.020 46.863 C 328.811 47.048,328.226 47.200,327.720 47.200 C 327.214 47.200,326.800 47.380,326.800 47.600 C 326.800 47.820,326.480 48.000,326.088 48.000 C 325.697 48.000,325.117 48.360,324.800 48.800 C 324.483 49.240,324.001 49.600,323.730 49.600 C 322.852 49.600,271.227 100.879,249.200 123.629 C 237.957 135.241,216.502 156.800,216.188 156.800 C 216.053 156.800,215.673 157.070,215.343 157.400 C 214.554 158.189,211.446 158.189,210.657 157.400 C 210.327 157.070,209.918 156.800,209.748 156.800 C 209.577 156.800,200.996 148.385,190.677 138.100 C 167.310 114.810,167.710 115.200,167.169 115.200 C 166.923 115.200,166.217 114.660,165.600 114.000 C 164.983 113.340,164.231 112.800,163.928 112.800 C 163.625 112.800,163.117 112.440,162.800 112.000 C 162.483 111.560,161.813 111.200,161.312 111.200 C 160.810 111.200,160.400 111.020,160.400 110.800 C 160.400 110.580,160.130 110.400,159.800 110.400 C 159.470 110.400,159.200 110.220,159.200 110.000 C 159.200 109.780,158.761 109.600,158.224 109.600 C 157.687 109.600,157.142 109.430,157.014 109.223 C 156.886 109.016,155.931 108.737,154.891 108.603 C 153.851 108.469,152.687 108.188,152.305 107.980 C 151.923 107.771,150.743 107.600,149.682 107.600 C 147.012 107.600,146.339 106.994,146.092 104.367 C 145.980 103.175,145.773 102.110,145.631 102.000 C 145.489 101.890,145.140 100.630,144.854 99.200 C 144.568 97.770,144.169 96.540,143.967 96.467 C 143.765 96.393,143.600 95.988,143.600 95.567 C 143.600 95.145,143.420 94.800,143.200 94.800 C 142.980 94.800,142.800 94.522,142.800 94.183 C 142.800 93.192,128.225 78.153,124.600 75.404 C 121.414 72.988,115.643 70.417,113.380 70.406 C 112.709 70.403,111.971 70.211,111.740 69.980 C 111.219 69.459,99.483 69.715,96.600 70.310 C 93.457 70.960,89.200 72.877,89.200 73.643 C 89.200 73.792,88.724 74.033,88.142 74.179 C 86.908 74.489,76.181 85.096,74.651 87.519 C 74.092 88.404,73.177 89.586,72.618 90.146 C 72.058 90.706,71.600 91.280,71.600 91.421 C 71.600 91.563,71.060 92.183,70.400 92.800 C 69.740 93.417,69.200 94.137,69.200 94.400 C 69.200 94.663,68.660 95.383,68.000 96.000 C 67.340 96.617,66.800 97.320,66.800 97.564 C 66.800 97.808,66.260 98.572,65.600 99.263 C 64.940 99.954,64.400 100.762,64.400 101.059 C 64.400 101.357,64.250 101.600,64.068 101.600 C 63.885 101.600,63.481 102.095,63.170 102.700 C 62.860 103.305,62.289 104.091,61.903 104.447 C 61.516 104.803,61.200 105.388,61.200 105.747 C 61.200 106.106,61.050 106.400,60.868 106.400 C 60.685 106.400,60.280 106.895,59.968 107.500 C 59.656 108.105,59.302 108.690,59.181 108.800 C 58.967 108.995,54.747 117.193,51.358 124.000 C 48.738 129.262,46.800 133.614,46.800 134.236 C 46.800 134.546,46.620 134.800,46.400 134.800 C 46.180 134.800,46.000 135.340,46.000 136.000 C 46.000 136.660,45.820 137.200,45.600 137.200 C 45.380 137.200,45.200 137.740,45.200 138.400 C 45.200 139.060,45.020 139.600,44.800 139.600 C 44.580 139.600,44.400 140.050,44.400 140.600 C 44.400 141.150,44.220 141.600,44.000 141.600 C 43.780 141.600,43.600 142.140,43.600 142.800 C 43.600 143.460,43.420 144.000,43.200 144.000 C 42.980 144.000,42.800 144.540,42.800 145.200 C 42.800 145.860,42.620 146.400,42.400 146.400 C 42.180 146.400,42.000 146.940,42.000 147.600 C 42.000 148.260,41.840 148.800,41.644 148.800 C 41.448 148.800,41.191 149.385,41.073 150.100 C 40.954 150.815,40.659 152.210,40.416 153.200 C 40.173 154.190,39.866 155.769,39.734 156.709 C 39.602 157.649,39.338 158.515,39.147 158.633 C 38.956 158.751,38.800 159.361,38.800 159.988 C 38.800 161.264,36.867 163.200,35.593 163.200 C 35.183 163.200,34.748 163.360,34.627 163.556 C 34.506 163.751,33.911 164.031,33.304 164.178 C 31.702 164.565,30.000 165.348,30.000 165.698 C 30.000 165.864,29.640 166.000,29.200 166.000 C 28.760 166.000,28.400 166.180,28.400 166.400 C 28.400 166.620,28.152 166.800,27.849 166.800 C 27.546 166.800,27.067 167.078,26.785 167.418 C 26.503 167.758,26.031 167.944,25.736 167.831 C 25.441 167.718,25.198 167.754,25.195 167.913 C 25.192 168.071,24.742 171.785,24.195 176.167 C 22.762 187.640,22.765 203.796,24.202 215.400 C 24.747 219.800,25.195 223.529,25.197 223.687 C 25.198 223.846,25.441 223.882,25.736 223.769 C 26.031 223.656,26.503 223.842,26.785 224.182 C 27.067 224.522,27.546 224.800,27.849 224.800 C 28.152 224.800,28.400 224.980,28.400 225.200 C 28.400 225.420,28.760 225.600,29.200 225.600 C 29.640 225.600,30.000 225.780,30.000 226.000 C 30.000 226.220,30.360 226.400,30.800 226.400 C 31.240 226.400,31.600 226.580,31.600 226.800 C 31.600 227.020,31.880 227.200,32.222 227.200 C 33.079 227.200,36.178 228.645,36.682 229.280 C 36.909 229.566,37.494 231.960,37.980 234.600 C 39.084 240.586,40.597 247.235,41.627 250.628 C 41.832 251.304,42.000 252.249,42.000 252.728 C 42.000 253.208,42.180 253.600,42.400 253.600 C 42.620 253.600,42.800 254.140,42.800 254.800 C 42.800 255.460,42.980 256.000,43.200 256.000 C 43.420 256.000,43.600 256.540,43.600 257.200 C 43.600 257.860,43.780 258.400,44.000 258.400 C 44.220 258.400,44.400 258.850,44.400 259.400 C 44.400 259.950,44.580 260.400,44.800 260.400 C 45.020 260.400,45.200 260.940,45.200 261.600 C 45.200 262.260,45.380 262.800,45.600 262.800 C 45.820 262.800,46.000 263.079,46.000 263.419 C 46.000 263.760,46.360 264.784,46.800 265.694 C 47.240 266.605,47.600 267.586,47.600 267.875 C 47.600 268.164,47.780 268.400,48.000 268.400 C 48.220 268.400,48.400 268.683,48.400 269.030 C 48.400 269.376,50.492 273.741,53.049 278.730 C 59.728 291.759,60.507 293.200,60.873 293.200 C 61.053 293.200,61.200 293.470,61.200 293.800 C 61.200 294.130,61.380 294.400,61.600 294.400 C 61.820 294.400,62.000 294.720,62.000 295.112 C 62.000 295.503,62.360 296.083,62.800 296.400 C 63.240 296.717,63.600 297.180,63.600 297.429 C 63.600 297.678,64.140 298.446,64.800 299.137 C 65.460 299.828,66.000 300.625,66.000 300.908 C 66.000 301.191,66.360 301.683,66.800 302.000 C 67.240 302.317,67.600 302.769,67.600 303.004 C 67.600 303.240,68.320 304.228,69.200 305.200 C 70.080 306.172,70.800 307.110,70.800 307.284 C 70.800 307.457,71.520 308.341,72.400 309.248 C 73.280 310.155,74.000 311.043,74.000 311.222 C 74.000 311.400,74.855 312.444,75.900 313.540 C 76.945 314.636,78.094 315.919,78.454 316.391 C 79.681 318.002,86.633 324.994,89.797 327.800 C 91.533 329.340,93.543 331.185,94.263 331.900 C 94.984 332.615,95.715 333.200,95.889 333.200 C 96.062 333.200,96.969 333.920,97.903 334.800 C 98.837 335.680,99.755 336.400,99.941 336.400 C 100.128 336.400,100.846 336.940,101.537 337.600 C 102.228 338.260,102.948 338.800,103.137 338.800 C 103.326 338.800,104.046 339.340,104.737 340.000 C 105.428 340.660,106.225 341.200,106.508 341.200 C 106.791 341.200,107.283 341.560,107.600 342.000 C 107.917 342.440,108.367 342.800,108.600 342.800 C 108.833 342.800,109.283 343.160,109.600 343.600 C 109.917 344.040,110.337 344.400,110.534 344.400 C 110.730 344.400,112.176 345.188,113.746 346.151 C 115.316 347.114,117.590 348.437,118.800 349.092 C 120.010 349.747,121.906 350.821,123.013 351.480 C 124.910 352.608,136.836 358.523,140.829 360.316 C 141.834 360.767,143.364 361.265,144.229 361.421 C 145.093 361.577,145.980 361.828,146.200 361.980 C 146.420 362.132,147.410 362.486,148.400 362.767 C 149.390 363.048,150.513 363.440,150.895 363.639 C 151.277 363.838,151.916 364.000,152.315 364.000 C 152.714 364.000,153.211 364.147,153.420 364.327 C 153.629 364.507,154.790 364.890,156.000 365.179 C 157.210 365.467,158.380 365.837,158.600 366.001 C 158.820 366.165,159.540 366.397,160.200 366.517 C 160.860 366.636,162.120 366.931,163.000 367.171 C 169.663 368.992,179.915 370.748,191.400 372.036 C 200.083 373.011,228.400 372.002,228.400 370.719 C 228.400 370.543,228.805 370.399,229.300 370.398 C 229.795 370.396,230.716 370.126,231.346 369.798 C 231.976 369.469,232.831 369.200,233.246 369.200 C 233.661 369.200,234.000 369.020,234.000 368.800 C 234.000 368.580,234.360 368.400,234.800 368.400 C 235.240 368.400,235.600 368.220,235.600 368.000 C 235.600 367.780,235.836 367.600,236.124 367.600 C 236.841 367.600,242.266 362.254,242.592 361.227 C 242.736 360.772,243.022 360.400,243.227 360.400 C 243.432 360.400,243.600 359.950,243.600 359.400 C 243.600 358.850,243.736 358.400,243.903 358.400 C 244.324 358.400,245.200 355.457,245.200 354.040 C 245.200 353.395,245.367 352.807,245.572 352.733 C 247.444 352.062,247.430 318.620,245.556 316.620 C 244.013 314.973,246.266 312.089,249.613 311.428 C 250.376 311.277,251.360 311.002,251.800 310.817 C 255.595 309.224,261.939 306.320,263.400 305.507 C 263.840 305.262,265.280 304.453,266.600 303.707 C 267.920 302.962,269.315 302.252,269.700 302.130 C 270.085 302.007,270.400 301.748,270.400 301.553 C 270.400 301.359,270.636 301.200,270.925 301.200 C 271.213 301.200,271.836 300.840,272.308 300.400 C 272.780 299.960,273.444 299.600,273.783 299.600 C 274.122 299.600,274.400 299.420,274.400 299.200 C 274.400 298.980,274.670 298.800,275.000 298.800 C 275.330 298.800,275.600 298.620,275.600 298.400 C 275.600 298.180,275.870 298.000,276.200 298.000 C 276.530 298.000,276.800 297.820,276.800 297.600 C 276.800 297.380,276.990 297.200,277.222 297.200 C 277.454 297.200,278.219 296.661,278.922 296.002 C 279.625 295.343,280.417 294.803,280.682 294.802 C 280.947 294.801,281.577 294.391,282.082 293.891 C 282.587 293.392,283.630 292.541,284.400 292.001 C 286.017 290.868,293.791 283.141,297.600 278.883 C 299.030 277.284,300.785 275.357,301.500 274.601 C 302.215 273.845,302.800 273.039,302.800 272.810 C 302.800 272.580,303.340 271.828,304.000 271.137 C 304.660 270.446,305.200 269.638,305.200 269.341 C 305.200 269.043,305.350 268.800,305.532 268.800 C 305.715 268.800,306.120 268.305,306.432 267.700 C 306.745 267.095,307.315 266.251,307.700 265.825 C 308.085 265.398,308.400 264.828,308.400 264.558 C 308.400 264.288,308.565 264.007,308.768 263.933 C 309.243 263.761,316.400 249.379,316.400 248.595 C 316.400 248.268,316.547 248.000,316.728 248.000 C 316.908 248.000,317.300 247.100,317.600 246.000 C 317.900 244.900,318.292 244.000,318.472 244.000 C 318.653 244.000,318.800 243.550,318.800 243.000 C 318.800 242.450,318.980 242.000,319.200 242.000 C 319.420 242.000,319.600 241.460,319.600 240.800 C 319.600 240.140,319.780 239.600,320.000 239.600 C 320.220 239.600,320.400 239.060,320.400 238.400 C 320.400 237.740,320.580 237.200,320.800 237.200 C 321.020 237.200,321.200 236.784,321.200 236.275 C 321.200 235.766,321.574 234.576,322.032 233.629 L 322.863 231.907 326.732 232.147 C 341.231 233.047,358.982 232.742,360.180 231.571 C 360.389 231.367,361.244 231.200,362.080 231.200 C 362.916 231.200,363.600 231.020,363.600 230.800 C 363.600 230.580,363.962 230.400,364.405 230.400 C 364.848 230.400,365.523 230.226,365.905 230.014 C 366.287 229.802,367.426 229.271,368.435 228.834 C 369.444 228.397,370.501 227.761,370.784 227.420 C 371.066 227.079,371.527 226.800,371.806 226.800 C 372.086 226.800,372.418 226.530,372.545 226.200 C 372.671 225.870,373.036 225.600,373.356 225.600 C 373.781 225.600,374.003 224.879,374.187 222.900 C 374.324 221.415,374.602 219.471,374.804 218.581 C 376.081 212.944,376.077 179.858,374.799 174.200 C 374.600 173.320,374.324 171.385,374.187 169.900 C 374.049 168.415,373.771 167.200,373.569 167.200 C 373.367 167.200,372.534 166.570,371.718 165.800 C 370.901 165.030,370.041 164.400,369.805 164.400 C 369.569 164.400,369.117 164.040,368.800 163.600 C 368.483 163.160,367.843 162.800,367.378 162.800 C 366.914 162.800,366.405 162.672,366.248 162.515 C 365.773 162.040,362.255 160.801,361.380 160.800 C 360.929 160.800,360.389 160.641,360.180 160.446 C 359.386 159.705,350.214 159.031,340.400 158.991 C 334.790 158.969,329.975 158.916,329.700 158.875 C 328.383 158.677,329.414 156.960,332.900 153.546 C 359.449 127.552,373.960 112.617,374.203 111.038 C 374.342 110.137,374.619 108.860,374.819 108.200 C 376.257 103.446,376.973 85.142,376.023 77.400 C 375.445 72.686,374.415 67.521,373.934 66.930 C 373.724 66.671,373.506 66.034,373.451 65.513 C 373.395 64.992,373.200 64.324,373.018 64.029 C 372.835 63.733,372.368 62.481,371.979 61.246 C 371.431 59.503,371.265 59.255,371.236 60.138 C 371.197 61.375,368.562 59.246,361.536 52.300 C 360.034 50.815,358.574 49.600,358.291 49.600 C 358.008 49.600,357.517 49.240,357.200 48.800 C 356.883 48.360,356.309 48.000,355.924 48.000 C 355.539 48.000,354.586 47.642,353.807 47.204 C 353.027 46.766,351.627 46.291,350.695 46.149 C 349.763 46.007,348.815 45.746,348.588 45.570 C 348.110 45.197,339.051 44.810,336.400 45.050 M342.990 67.195 C 345.142 68.237,360.389 83.591,361.548 85.884 C 362.486 87.739,362.621 89.356,361.980 91.074 C 361.743 91.708,342.544 111.242,318.020 135.800 C 294.073 159.780,274.189 179.982,273.834 180.693 C 273.478 181.405,272.605 182.281,271.893 182.642 C 271.182 183.002,259.170 194.673,245.200 208.578 C 216.076 237.566,216.352 237.343,212.092 235.322 C 211.232 234.914,198.650 222.584,180.459 204.322 C 149.429 173.171,149.341 173.090,147.895 174.700 C 146.324 176.449,143.893 184.924,143.012 191.720 C 136.766 239.904,183.039 277.961,229.157 262.571 C 258.453 252.795,277.525 222.546,273.400 192.400 C 271.812 180.793,271.314 181.196,287.197 181.209 C 303.893 181.222,304.006 181.352,303.996 200.529 C 303.959 271.459,228.999 317.772,165.424 286.143 C 137.351 272.176,118.510 246.289,113.209 214.400 C 111.989 207.063,112.951 207.535,99.524 207.682 C 86.562 207.824,87.400 207.438,87.750 213.108 C 89.744 245.365,111.744 281.128,141.711 300.825 C 161.749 313.996,191.958 322.389,212.352 320.453 C 225.210 319.232,225.294 319.333,225.114 335.800 C 224.946 351.155,226.108 350.151,208.310 350.321 C 136.094 351.008,73.304 299.773,59.625 228.997 C 58.560 223.488,58.187 220.646,57.388 211.937 C 57.023 207.951,56.832 207.846,49.460 207.586 C 39.634 207.238,39.400 206.964,39.400 195.800 C 39.400 184.478,39.550 184.302,49.419 183.999 C 57.840 183.740,57.207 184.336,58.769 175.200 C 63.991 144.662,77.834 116.923,98.360 95.871 C 105.033 89.027,105.248 89.069,116.124 99.390 C 126.866 109.584,126.819 109.322,119.349 117.502 C 104.020 134.290,93.990 153.557,89.605 174.640 C 87.579 184.381,86.897 183.759,99.804 183.925 C 113.838 184.107,113.127 184.475,115.374 175.863 C 120.557 155.999,137.871 129.609,145.726 129.601 C 149.078 129.598,150.895 131.236,182.800 163.024 C 198.530 178.697,211.796 191.637,212.280 191.780 C 213.820 192.237,215.164 191.097,226.015 180.129 C 231.853 174.228,255.068 150.770,277.605 128.000 C 300.141 105.230,322.715 82.416,327.770 77.302 C 338.729 66.215,339.672 65.589,342.990 67.195 M355.472 182.226 C 358.006 184.080,358.200 185.104,358.200 196.600 C 358.200 211.601,359.034 210.800,343.427 210.800 C 327.231 210.800,328.476 212.670,327.852 187.400 C 327.781 184.509,328.606 182.852,330.570 181.946 C 333.138 180.760,353.786 180.992,355.472 182.226 " stroke="none" fill="#252525" fill-rule="evenodd"></path><path id="path2" d="M300.419 111.283 C 228.951 183.361,215.541 196.675,214.147 196.931 C 210.867 197.534,211.807 198.370,180.800 167.214 C 144.081 130.317,146.580 132.169,141.176 137.859 C 130.590 149.005,122.974 163.315,119.007 179.514 C 116.854 188.305,117.077 188.200,100.600 188.200 C 82.485 188.200,82.198 187.954,84.995 174.800 C 89.724 152.563,99.642 132.854,114.266 116.633 C 120.617 109.588,120.497 110.057,116.900 106.310 C 105.380 94.314,105.304 94.299,98.060 102.585 C 79.379 123.953,67.457 148.954,63.242 175.600 C 61.267 188.090,61.384 187.966,51.314 188.303 C 43.398 188.567,43.800 188.165,43.800 195.828 C 43.800 203.380,43.338 202.940,51.531 203.200 C 60.956 203.499,61.016 203.562,62.043 214.329 C 69.175 289.114,132.022 346.000,207.513 346.000 C 222.056 346.000,220.563 347.194,220.721 335.439 L 220.842 326.406 219.823 325.386 C 218.839 324.403,218.692 324.378,215.701 324.683 C 203.071 325.973,183.873 323.544,168.966 318.769 C 122.764 303.969,87.560 260.562,83.207 213.030 C 82.341 203.569,82.957 203.199,99.597 203.202 C 116.375 203.206,116.005 202.973,117.792 214.600 C 127.107 275.203,193.459 309.536,248.688 282.331 C 280.729 266.548,300.221 234.252,299.519 198.110 C 299.264 184.957,299.874 185.600,287.655 185.600 C 277.002 185.600,277.376 185.435,277.762 189.976 C 280.326 220.126,269.649 243.747,246.600 258.915 C 206.062 285.592,151.786 264.039,139.810 216.509 C 135.259 198.447,140.646 168.400,148.435 168.400 C 151.116 168.400,151.324 168.593,182.883 200.365 C 199.447 217.042,213.407 230.786,213.905 230.907 C 214.443 231.038,215.460 230.777,216.409 230.264 C 218.523 229.121,357.051 90.649,357.376 89.354 C 357.749 87.867,356.650 86.210,352.658 82.239 C 344.290 73.914,341.704 71.600,340.752 71.583 C 340.011 71.569,331.084 80.356,300.419 111.283 M333.195 186.324 L 332.301 187.048 332.733 193.848 C 332.971 197.587,333.062 201.039,332.937 201.519 C 332.619 202.735,333.112 205.055,333.844 205.787 C 334.718 206.661,351.836 206.701,353.024 205.832 C 353.752 205.299,353.800 204.712,353.800 196.397 L 353.800 187.530 352.678 186.565 C 351.140 185.243,334.779 185.041,333.195 186.324 " stroke="none" fill="#fbfbfb" fill-rule="evenodd"></path><path id="path3" d="M338.600 68.742 C 337.940 69.149,320.132 86.923,299.026 108.241 C 236.199 171.699,214.738 193.129,213.771 193.372 C 211.800 193.866,210.133 192.330,182.400 164.457 C 144.406 126.272,146.536 127.686,139.019 135.672 C 128.038 147.336,120.044 162.116,116.204 177.849 C 114.337 185.501,114.814 185.287,99.999 185.123 C 85.548 184.963,85.988 185.351,88.226 174.754 C 92.898 152.628,102.947 133.347,118.701 116.284 C 124.856 109.618,124.904 109.879,115.891 101.049 C 104.898 90.278,104.836 90.273,96.559 99.631 C 76.413 122.407,64.608 147.244,59.799 176.975 C 58.464 185.228,58.806 184.932,50.292 185.206 C 40.722 185.513,40.800 185.427,40.800 195.761 C 40.800 205.979,40.909 206.107,49.800 206.310 C 58.482 206.508,58.197 206.229,59.003 215.297 C 65.706 290.678,131.914 349.923,208.558 349.122 C 224.840 348.952,223.800 349.915,223.800 335.018 C 223.800 320.826,223.727 320.714,215.054 321.561 C 201.817 322.853,182.516 320.186,167.687 315.014 C 125.087 300.156,94.185 263.146,87.019 218.400 C 85.930 211.599,86.019 208.487,87.334 207.355 L 88.445 206.400 99.768 206.400 C 114.129 206.400,113.227 205.893,114.591 214.740 C 118.275 238.634,132.007 261.560,151.200 275.856 C 213.983 322.622,302.553 278.361,302.594 200.200 C 302.604 182.325,302.673 182.406,287.200 182.403 C 273.743 182.401,273.477 182.584,274.561 191.139 C 282.482 253.635,208.994 291.918,162.604 249.462 C 142.373 230.946,134.944 197.013,146.240 174.721 C 148.633 169.999,147.219 168.854,180.633 202.558 C 213.542 235.751,212.233 234.537,214.861 234.296 C 217.850 234.021,217.168 234.680,290.700 161.120 L 360.800 90.995 360.800 89.277 C 360.800 86.555,359.989 85.472,351.661 77.073 C 342.146 67.478,341.412 67.010,338.600 68.742 M348.973 75.126 C 360.250 85.982,361.431 87.677,359.832 90.720 C 359.199 91.924,220.591 230.592,218.435 232.177 C 213.770 235.608,215.694 237.143,181.846 202.982 C 165.812 186.799,152.085 173.095,151.343 172.529 C 148.196 170.129,146.481 171.621,144.099 178.826 C 127.199 229.955,173.491 279.335,225.469 265.623 C 257.186 257.257,278.995 226.039,275.474 194.047 C 274.574 185.870,274.589 185.374,275.782 184.182 L 276.764 183.200 287.551 183.200 L 298.339 183.200 299.494 184.172 C 302.889 187.029,303.055 207.045,299.804 221.600 C 292.808 252.926,268.649 279.397,237.769 289.569 C 182.100 307.906,124.137 272.135,114.997 213.800 C 113.671 205.338,114.526 205.800,100.200 205.800 C 84.747 205.800,85.075 205.614,85.917 213.911 C 92.252 276.350,148.279 324.312,212.462 322.239 L 220.723 321.972 221.862 322.952 L 223.000 323.931 223.000 334.956 L 223.000 345.982 221.995 346.987 C 217.964 351.018,186.427 348.725,166.400 342.946 C 108.326 326.187,64.374 273.741,59.595 215.500 C 58.797 205.772,58.936 205.914,49.944 205.612 C 43.687 205.402,43.603 205.388,42.508 204.292 L 41.400 203.184 41.287 196.292 C 41.117 185.948,41.375 185.662,50.881 185.623 C 58.311 185.592,59.177 185.104,59.797 180.595 C 63.995 150.082,75.898 124.105,96.453 100.594 C 104.763 91.088,104.671 91.090,114.308 100.200 C 124.666 109.992,124.575 109.180,116.335 118.098 C 102.430 133.146,91.848 154.157,87.588 175.176 C 86.103 182.498,86.103 182.965,87.586 184.447 L 88.772 185.633 101.019 185.517 L 113.267 185.400 114.352 184.185 C 115.163 183.276,115.771 181.663,116.764 177.785 C 120.834 161.880,128.491 147.722,139.208 136.284 C 146.614 128.379,144.830 127.196,181.636 164.424 C 210.183 193.299,210.931 194.000,213.154 194.000 C 214.776 194.000,217.340 191.465,299.421 108.684 L 339.000 68.769 340.700 68.784 C 342.345 68.799,342.614 69.005,348.973 75.126 M332.125 182.841 C 329.493 183.603,329.063 184.770,329.411 190.200 C 329.581 192.840,329.767 197.637,329.824 200.860 C 329.985 209.853,329.589 209.601,343.560 209.599 C 357.725 209.596,357.008 210.291,356.981 196.600 C 356.952 182.032,357.323 182.403,342.800 182.445 C 337.630 182.460,332.826 182.638,332.125 182.841 M353.942 183.770 C 356.007 184.838,356.182 185.759,356.309 196.200 C 356.474 209.773,357.048 209.196,343.400 209.196 C 330.589 209.196,330.397 209.078,330.405 201.246 C 330.407 198.471,330.201 194.029,329.946 191.376 C 329.430 185.999,329.717 184.670,331.600 183.718 C 333.124 182.947,352.438 182.992,353.942 183.770 " stroke="none" fill="#787878" fill-rule="evenodd"></path><path id="path4" d="M299.421 108.684 C 217.340 191.465,214.776 194.000,213.154 194.000 C 210.931 194.000,210.183 193.299,181.636 164.424 C 144.830 127.196,146.614 128.379,139.208 136.284 C 128.491 147.722,120.834 161.880,116.764 177.785 C 115.771 181.663,115.163 183.276,114.352 184.185 L 113.267 185.400 101.019 185.517 L 88.772 185.633 87.586 184.447 C 86.103 182.965,86.103 182.498,87.588 175.176 C 91.848 154.157,102.430 133.146,116.335 118.098 C 124.575 109.180,124.666 109.992,114.308 100.200 C 104.671 91.090,104.763 91.088,96.453 100.594 C 75.898 124.105,63.995 150.082,59.797 180.595 C 59.177 185.104,58.311 185.592,50.881 185.623 C 41.375 185.662,41.117 185.948,41.287 196.292 L 41.400 203.184 42.508 204.292 C 43.603 205.388,43.687 205.402,49.944 205.612 C 58.936 205.914,58.797 205.772,59.595 215.500 C 64.374 273.741,108.326 326.187,166.400 342.946 C 186.427 348.725,217.964 351.018,221.995 346.987 L 223.000 345.982 223.000 334.956 L 223.000 323.931 221.862 322.952 L 220.723 321.972 212.462 322.239 C 148.279 324.312,92.252 276.350,85.917 213.911 C 85.075 205.614,84.747 205.800,100.200 205.800 C 114.526 205.800,113.671 205.338,114.997 213.800 C 126.164 285.071,207.521 318.270,265.200 275.093 C 289.159 257.157,302.418 229.481,301.896 198.495 C 301.707 187.261,301.467 185.833,299.494 184.172 L 298.339 183.200 287.551 183.200 L 276.764 183.200 275.782 184.182 C 274.589 185.374,274.574 185.870,275.474 194.047 C 278.995 226.039,257.186 257.257,225.469 265.623 C 173.491 279.335,127.199 229.955,144.099 178.826 C 146.481 171.621,148.196 170.129,151.343 172.529 C 152.085 173.095,165.812 186.799,181.846 202.982 C 215.694 237.143,213.770 235.608,218.435 232.177 C 220.591 230.592,359.199 91.924,359.832 90.720 C 361.431 87.677,360.250 85.982,348.973 75.126 C 342.614 69.005,342.345 68.799,340.700 68.784 L 339.000 68.769 299.421 108.684 M342.320 70.173 C 343.490 70.794,357.472 84.767,358.545 86.389 C 358.905 86.933,359.200 88.102,359.200 88.986 C 359.200 90.591,359.050 90.744,289.300 160.515 C 219.510 230.325,216.950 232.802,214.631 232.797 C 212.650 232.793,212.577 232.725,180.907 200.859 C 146.881 166.623,149.207 168.595,146.397 171.603 C 144.270 173.880,141.174 183.960,140.197 191.788 C 134.106 240.620,180.183 279.784,227.502 265.993 C 258.999 256.813,280.197 225.035,276.249 192.917 C 275.418 186.154,275.419 186.145,276.582 184.982 L 277.564 184.000 287.402 184.000 C 301.530 184.000,301.204 183.619,301.196 200.155 C 301.161 268.953,229.774 313.943,167.784 284.234 C 139.705 270.778,120.508 244.500,115.797 213.077 C 114.559 204.817,114.628 204.853,100.000 204.825 C 83.789 204.794,83.577 204.979,85.425 217.549 C 93.553 272.808,138.697 316.472,193.800 322.370 C 204.258 323.490,207.395 323.618,213.302 323.166 C 222.651 322.451,222.400 322.125,222.400 335.000 C 222.400 348.663,223.484 347.756,207.200 347.712 C 130.608 347.501,67.238 289.621,60.253 213.493 C 59.493 205.210,59.029 204.800,50.439 204.800 C 42.236 204.800,41.976 204.519,42.040 195.713 C 42.105 186.693,42.090 186.709,51.019 186.469 C 60.207 186.222,59.691 186.809,61.809 174.200 C 66.359 147.107,78.146 122.776,97.280 100.980 C 104.958 92.234,104.663 92.223,114.448 101.584 C 123.144 109.902,123.048 109.397,117.148 115.837 C 102.040 132.329,91.849 151.789,87.004 173.400 C 85.268 181.142,85.206 183.667,86.713 185.175 L 87.938 186.400 100.389 186.400 C 116.520 186.400,115.306 187.020,117.761 177.524 C 121.962 161.273,131.831 143.819,141.976 134.698 C 146.786 130.373,145.830 129.626,181.466 165.568 C 207.493 191.819,211.094 195.200,213.022 195.200 C 214.932 195.200,214.818 195.312,300.816 108.441 C 341.690 67.152,339.841 68.858,342.320 70.173 M331.600 183.718 C 329.717 184.670,329.430 185.999,329.946 191.376 C 330.201 194.029,330.407 198.471,330.405 201.246 C 330.397 209.078,330.589 209.196,343.400 209.196 C 357.048 209.196,356.474 209.773,356.309 196.200 C 356.182 185.759,356.007 184.838,353.942 183.770 C 352.438 182.992,333.124 182.947,331.600 183.718 M352.953 184.382 C 355.234 185.249,355.400 186.071,355.400 196.516 L 355.400 206.068 354.313 207.004 C 352.840 208.271,350.406 208.520,341.321 208.330 C 330.832 208.111,331.415 208.762,330.988 196.800 C 330.588 185.572,330.561 185.964,331.788 184.909 C 332.941 183.917,350.576 183.479,352.953 184.382 " stroke="none" fill="#929494" fill-rule="evenodd"></path><path id="path5" d="M338.580 67.202 C 337.595 67.690,333.362 71.645,327.770 77.302 C 322.715 82.416,300.141 105.230,277.605 128.000 C 255.068 150.770,231.853 174.228,226.015 180.129 C 215.164 191.097,213.820 192.237,212.280 191.780 C 211.796 191.637,198.530 178.697,182.800 163.024 C 156.968 137.287,150.884 131.502,148.126 130.058 C 140.532 126.079,121.372 152.875,115.374 175.863 C 113.127 184.475,113.838 184.107,99.804 183.925 C 86.897 183.759,87.579 184.381,89.605 174.640 C 93.990 153.557,104.020 134.290,119.349 117.502 C 126.819 109.322,126.866 109.584,116.124 99.390 C 105.248 89.069,105.033 89.027,98.360 95.871 C 77.834 116.923,63.991 144.662,58.769 175.200 C 57.207 184.336,57.840 183.740,49.419 183.999 C 39.550 184.302,39.400 184.478,39.400 195.800 C 39.400 206.964,39.634 207.238,49.460 207.586 C 56.832 207.846,57.023 207.951,57.388 211.937 C 58.187 220.646,58.560 223.488,59.625 228.997 C 73.304 299.773,136.094 351.008,208.310 350.321 C 226.108 350.151,224.946 351.155,225.114 335.800 C 225.294 319.333,225.210 319.232,212.352 320.453 C 191.958 322.389,161.749 313.996,141.711 300.825 C 111.744 281.128,89.744 245.365,87.750 213.108 C 87.400 207.438,86.562 207.824,99.524 207.682 C 112.951 207.535,111.989 207.063,113.209 214.400 C 121.131 262.057,159.149 295.210,206.671 295.905 C 260.720 296.696,303.968 254.313,303.996 200.529 C 304.006 181.352,303.893 181.222,287.197 181.209 C 271.314 181.196,271.812 180.793,273.400 192.400 C 277.525 222.546,258.453 252.795,229.157 262.571 C 183.039 277.961,136.766 239.904,143.012 191.720 C 143.893 184.924,146.324 176.449,147.895 174.700 C 149.341 173.090,149.429 173.171,180.459 204.322 C 198.650 222.584,211.232 234.914,212.092 235.322 C 216.352 237.343,216.076 237.566,245.200 208.578 C 259.170 194.673,271.182 183.002,271.893 182.642 C 272.605 182.281,273.478 181.405,273.834 180.693 C 274.189 179.982,294.073 159.780,318.020 135.800 C 342.544 111.242,361.743 91.708,361.980 91.074 C 363.315 87.496,362.224 85.741,352.665 76.095 C 342.959 66.301,341.835 65.591,338.580 67.202 M342.720 68.573 C 344.272 69.397,359.399 84.754,360.161 86.280 C 360.512 86.984,360.800 88.333,360.800 89.277 L 360.800 90.995 290.700 161.120 C 217.168 234.680,217.850 234.021,214.861 234.296 C 212.233 234.537,213.542 235.751,180.633 202.558 C 147.219 168.854,148.633 169.999,146.240 174.721 C 134.944 197.013,142.373 230.946,162.604 249.462 C 208.994 291.918,282.482 253.635,274.561 191.139 C 273.477 182.584,273.743 182.401,287.200 182.403 C 302.673 182.406,302.604 182.325,302.594 200.200 C 302.553 278.361,213.983 322.622,151.200 275.856 C 132.007 261.560,118.275 238.634,114.591 214.740 C 113.227 205.893,114.129 206.400,99.768 206.400 L 88.445 206.400 87.334 207.355 C 86.019 208.487,85.930 211.599,87.019 218.400 C 94.185 263.146,125.087 300.156,167.687 315.014 C 182.516 320.186,201.817 322.853,215.054 321.561 C 223.727 320.714,223.800 320.826,223.800 335.018 C 223.800 349.915,224.840 348.952,208.558 349.122 C 131.914 349.923,65.706 290.678,59.003 215.297 C 58.197 206.229,58.482 206.508,49.800 206.310 C 40.909 206.107,40.800 205.979,40.800 195.761 C 40.800 185.427,40.722 185.513,50.292 185.206 C 58.806 184.932,58.464 185.228,59.799 176.975 C 64.608 147.244,76.413 122.407,96.559 99.631 C 104.836 90.273,104.898 90.278,115.891 101.049 C 124.904 109.879,124.856 109.618,118.701 116.284 C 102.947 133.347,92.898 152.628,88.226 174.754 C 85.988 185.351,85.548 184.963,99.999 185.123 C 114.814 185.287,114.337 185.501,116.204 177.849 C 120.044 162.116,128.038 147.336,139.019 135.672 C 146.536 127.686,144.406 126.272,182.400 164.457 C 210.133 192.330,211.800 193.866,213.771 193.372 C 214.738 193.129,236.199 171.699,299.026 108.241 C 342.052 64.783,339.664 66.951,342.720 68.573 M375.063 71.280 C 375.400 73.049,375.600 73.201,375.600 71.690 C 375.600 71.007,375.423 70.338,375.206 70.204 C 374.960 70.052,374.906 70.455,375.063 71.280 M375.767 75.200 C 376.729 81.427,376.733 94.564,375.775 102.000 C 375.619 103.210,375.626 104.075,375.790 103.923 C 377.450 102.379,377.458 75.228,375.799 73.688 C 375.628 73.530,375.614 74.210,375.767 75.200 M375.293 106.400 C 375.293 107.170,375.375 107.485,375.476 107.100 C 375.576 106.715,375.576 106.085,375.476 105.700 C 375.375 105.315,375.293 105.630,375.293 106.400 M23.918 173.200 C 23.763 174.850,23.543 177.730,23.431 179.600 L 23.226 183.000 23.813 178.800 C 24.137 176.490,24.356 173.610,24.301 172.400 C 24.201 170.219,24.198 170.226,23.918 173.200 M375.334 178.000 C 375.334 179.650,375.405 180.325,375.491 179.500 C 375.578 178.675,375.578 177.325,375.491 176.500 C 375.405 175.675,375.334 176.350,375.334 178.000 M330.570 181.946 C 328.606 182.852,327.781 184.509,327.852 187.400 C 328.476 212.670,327.231 210.800,343.427 210.800 C 359.034 210.800,358.200 211.601,358.200 196.600 C 358.200 180.773,358.853 181.442,343.272 181.296 C 333.145 181.202,332.061 181.257,330.570 181.946 M353.830 183.158 C 356.732 184.476,356.959 185.445,356.981 196.600 C 357.008 210.291,357.725 209.596,343.560 209.599 C 329.589 209.601,329.985 209.853,329.824 200.860 C 329.767 197.637,329.581 192.840,329.411 190.200 C 328.920 182.556,329.042 182.485,342.800 182.445 C 351.131 182.421,352.385 182.502,353.830 183.158 M375.800 196.600 C 375.800 204.300,375.917 209.610,376.060 208.400 C 376.392 205.595,376.387 188.629,376.053 185.200 C 375.914 183.770,375.800 188.900,375.800 196.600 M22.626 190.500 C 22.483 194.515,22.528 200.140,22.725 203.000 C 23.049 207.698,23.090 206.993,23.142 195.700 C 23.207 181.623,23.013 179.662,22.626 190.500 M23.458 212.000 C 23.581 213.870,23.816 216.750,23.981 218.400 L 24.279 221.400 24.305 218.600 C 24.320 217.060,24.084 214.180,23.782 212.200 L 23.234 208.600 23.458 212.000 M375.331 215.000 C 375.333 216.540,375.405 217.121,375.492 216.291 C 375.579 215.461,375.577 214.201,375.489 213.491 C 375.400 212.781,375.329 213.460,375.331 215.000 M358.575 360.500 L 357.400 361.800 358.700 360.625 C 359.415 359.979,360.000 359.394,360.000 359.325 C 360.000 359.016,359.670 359.288,358.575 360.500 " stroke="none" fill="#6a6c6c" fill-rule="evenodd"></path><path id="path6" d="M339.000 70.343 C 338.340 70.749,321.157 87.894,300.816 108.441 C 214.818 195.312,214.932 195.200,213.022 195.200 C 211.094 195.200,207.493 191.819,181.466 165.568 C 145.830 129.626,146.786 130.373,141.976 134.698 C 131.831 143.819,121.962 161.273,117.761 177.524 C 115.306 187.020,116.520 186.400,100.389 186.400 L 87.938 186.400 86.713 185.175 C 85.206 183.667,85.268 181.142,87.004 173.400 C 91.849 151.789,102.040 132.329,117.148 115.837 C 123.048 109.397,123.144 109.902,114.448 101.584 C 104.663 92.223,104.958 92.234,97.280 100.980 C 78.146 122.776,66.359 147.107,61.809 174.200 C 59.691 186.809,60.207 186.222,51.019 186.469 C 42.090 186.709,42.105 186.693,42.040 195.713 C 41.976 204.519,42.236 204.800,50.439 204.800 C 59.029 204.800,59.493 205.210,60.253 213.493 C 67.238 289.621,130.608 347.501,207.200 347.712 C 223.484 347.756,222.400 348.663,222.400 335.000 C 222.400 322.125,222.651 322.451,213.302 323.166 C 207.395 323.618,204.258 323.490,193.800 322.370 C 138.697 316.472,93.553 272.808,85.425 217.549 C 83.577 204.979,83.789 204.794,100.000 204.825 C 114.628 204.853,114.559 204.817,115.797 213.077 C 126.414 283.903,207.558 317.359,264.584 274.424 C 287.830 256.922,301.181 229.839,301.196 200.155 C 301.204 183.619,301.530 184.000,287.402 184.000 L 277.564 184.000 276.582 184.982 C 275.419 186.145,275.418 186.154,276.249 192.917 C 280.197 225.035,258.999 256.813,227.502 265.993 C 180.183 279.784,134.106 240.620,140.197 191.788 C 141.174 183.960,144.270 173.880,146.397 171.603 C 149.207 168.595,146.881 166.623,180.907 200.859 C 212.577 232.725,212.650 232.793,214.631 232.797 C 216.950 232.802,219.510 230.325,289.300 160.515 C 359.050 90.744,359.200 90.591,359.200 88.986 C 359.200 86.800,358.914 86.435,350.645 78.073 C 341.895 69.225,341.375 68.879,339.000 70.343 M345.352 75.100 C 356.301 85.604,357.855 87.445,357.376 89.354 C 357.051 90.649,218.523 229.121,216.409 230.264 C 215.460 230.777,214.443 231.038,213.905 230.907 C 213.407 230.786,199.447 217.042,182.883 200.365 C 151.324 168.593,151.116 168.400,148.435 168.400 C 140.646 168.400,135.259 198.447,139.810 216.509 C 151.786 264.039,206.062 285.592,246.600 258.915 C 269.649 243.747,280.326 220.126,277.762 189.976 C 277.376 185.435,277.002 185.600,287.655 185.600 C 299.874 185.600,299.264 184.957,299.519 198.110 C 300.768 262.465,238.500 307.638,177.569 286.580 C 146.482 275.836,122.826 247.351,117.792 214.600 C 116.005 202.973,116.375 203.206,99.597 203.202 C 82.957 203.199,82.341 203.569,83.207 213.030 C 87.560 260.562,122.764 303.969,168.966 318.769 C 183.873 323.544,203.071 325.973,215.701 324.683 C 218.692 324.378,218.839 324.403,219.823 325.386 L 220.842 326.406 220.721 335.439 C 220.563 347.194,222.056 346.000,207.513 346.000 C 132.022 346.000,69.175 289.114,62.043 214.329 C 61.016 203.562,60.956 203.499,51.531 203.200 C 43.338 202.940,43.800 203.380,43.800 195.828 C 43.800 188.165,43.398 188.567,51.314 188.303 C 61.384 187.966,61.267 188.090,63.242 175.600 C 67.457 148.954,79.379 123.953,98.060 102.585 C 105.304 94.299,105.380 94.314,116.900 106.310 C 120.497 110.057,120.617 109.588,114.266 116.633 C 99.642 132.854,89.724 152.563,84.995 174.800 C 82.198 187.954,82.485 188.200,100.600 188.200 C 117.077 188.200,116.854 188.305,119.007 179.514 C 122.974 163.315,130.590 149.005,141.176 137.859 C 146.580 132.169,144.081 130.317,180.800 167.214 C 211.807 198.370,210.867 197.534,214.147 196.931 C 215.541 196.675,228.951 183.361,300.419 111.283 C 331.084 80.356,340.011 71.569,340.752 71.583 C 341.390 71.594,342.904 72.753,345.352 75.100 M331.788 184.909 C 330.561 185.964,330.588 185.572,330.988 196.800 C 331.415 208.762,330.832 208.111,341.321 208.330 C 350.406 208.520,352.840 208.271,354.313 207.004 L 355.400 206.068 355.400 196.516 C 355.400 183.167,356.265 184.000,342.396 184.000 C 333.040 184.000,332.823 184.019,331.788 184.909 M352.678 186.565 L 353.800 187.530 353.800 196.397 C 353.800 204.712,353.752 205.299,353.024 205.832 C 351.836 206.701,334.718 206.661,333.844 205.787 C 333.112 205.055,332.619 202.735,332.937 201.519 C 333.062 201.039,332.971 197.587,332.733 193.848 L 332.301 187.048 333.195 186.324 C 334.779 185.041,351.140 185.243,352.678 186.565 " stroke="none" fill="#b8bcbc" fill-rule="evenodd"></path></g></svg>